<svg width="143" height="35" viewBox="0 0 143 35" fill="none" xmlns="http://www.w3.org/2000/svg">
<path opacity="0.4" d="M33.3837 25.4713C33.3837 25.5299 33.3837 25.5801 33.387 25.6269H33.3837V25.4713Z" fill="url(#paint0_linear_65_4)"/>
<path d="M58.1685 21.7959H54V10.6165H58.0422C61.2164 10.6165 64.4379 11.9426 64.4379 16.1749C64.4379 20.1073 61.2483 21.7959 58.1685 21.7959ZM57.9796 12.9215H56.6369V19.4589H57.9158C59.8418 19.4589 61.6261 18.6689 61.6261 16.1749C61.6261 13.6809 59.8418 12.9215 57.9783 12.9215H57.9796Z" fill="#4A4A4A"/>
<path d="M68.3524 12.8424C67.5164 12.8424 66.868 12.1953 66.868 11.4218C66.868 10.6484 67.5151 10 68.3524 10C69.1897 10 69.8368 10.6318 69.8368 11.4218C69.8368 12.2119 69.1731 12.8424 68.3524 12.8424ZM67.0582 21.7959V13.9324H69.6479V21.7959H67.0582Z" fill="#4A4A4A"/>
<path d="M77.5101 21.7959H74.7149L71.6198 13.9323H74.4775L76.1355 19.0326H76.1827L77.8407 13.9323H80.6039L77.5088 21.7959H77.5101Z" fill="#4A4A4A"/>
<path d="M90.3322 18.5744H84.6321C84.7112 19.4436 85.5804 20.0588 86.5109 20.0588C87.3328 20.0588 87.9008 19.7116 88.248 19.2381L90.0476 20.3753C89.306 21.4487 88.0744 22.0486 86.4789 22.0486C84.1101 22.0486 82.1522 20.5489 82.1522 17.8954C82.1522 15.2419 84.0156 13.6797 86.3998 13.6797C88.784 13.6797 90.3475 15.2751 90.3475 17.9592C90.3475 18.1647 90.3475 18.3855 90.3322 18.5744ZM87.9633 16.9637C87.9633 16.143 87.4426 15.464 86.4151 15.464C85.3877 15.464 84.6946 16.1583 84.6308 16.9637H87.9633Z" fill="#4A4A4A"/>
<path d="M98.0055 16.0485C97.7681 15.9847 97.5473 15.9694 97.3418 15.9694C95.9519 15.9694 95.495 17.1066 95.495 17.7537V21.7959H92.9053V13.9324H95.4005V15.0696H95.4324C95.8268 14.2795 96.6015 13.7115 97.5639 13.7115C97.7694 13.7115 97.9902 13.7269 98.1166 13.7754L98.0055 16.0498V16.0485Z" fill="#4A4A4A"/>
<path d="M103.531 25.5853C102.157 25.5853 100.547 25.1437 99.4886 24.3537L100.784 22.5068C101.542 23.1705 102.505 23.5011 103.389 23.5011C104.905 23.5011 105.616 22.6166 105.616 21.3058V20.8322H105.569C105.08 21.464 104.226 21.875 103.185 21.875C100.801 21.875 99.4274 20.0115 99.4274 17.8328C99.4274 15.6541 100.801 13.7115 103.17 13.7115C104.149 13.7115 105.127 14.1059 105.68 14.9432H105.712V13.9324H108.16V21.0543C108.16 24.1341 106.329 25.5866 103.533 25.5866L103.531 25.5853ZM103.784 15.8264C102.616 15.8264 101.937 16.7263 101.937 17.8162C101.937 18.9062 102.616 19.8214 103.784 19.8214C104.951 19.8214 105.694 18.8896 105.694 17.8162C105.694 16.7428 104.953 15.8264 103.784 15.8264Z" fill="#4A4A4A"/>
<path d="M118.943 18.5744H113.242C113.322 19.4436 114.19 20.0588 115.121 20.0588C115.942 20.0588 116.511 19.7116 116.858 19.2381L118.658 20.3753C117.915 21.4487 116.685 22.0486 115.089 22.0486C112.72 22.0486 110.763 20.5489 110.763 17.8954C110.763 15.2419 112.626 13.6797 115.01 13.6797C117.394 13.6797 118.958 15.2751 118.958 17.9592C118.958 18.1647 118.958 18.3855 118.943 18.5744ZM116.574 16.9637C116.574 16.143 116.053 15.464 115.026 15.464C113.998 15.464 113.305 16.1583 113.241 16.9637H116.574Z" fill="#4A4A4A"/>
<path d="M120.881 23V11.3636H123.693V16.0341H128.278V11.3636H131.085V23H128.278V18.3239H123.693V23H120.881ZM132.849 23V11.3636H137.656C138.527 11.3636 139.279 11.5208 139.912 11.8352C140.548 12.1458 141.039 12.5928 141.384 13.1761C141.728 13.7557 141.901 14.4432 141.901 15.2386C141.901 16.0455 141.724 16.7311 141.372 17.2955C141.02 17.8561 140.52 18.2841 139.872 18.5795C139.224 18.8712 138.457 19.017 137.571 19.017H134.531V16.8011H137.048C137.473 16.8011 137.827 16.7462 138.111 16.6364C138.399 16.5227 138.616 16.3523 138.764 16.125C138.912 15.8939 138.986 15.5985 138.986 15.2386C138.986 14.8788 138.912 14.5814 138.764 14.3466C138.616 14.108 138.399 13.9299 138.111 13.8125C137.823 13.6913 137.469 13.6307 137.048 13.6307H135.662V23H132.849ZM139.401 17.6818L142.298 23H139.23L136.389 17.6818H139.401Z" fill="#1FB7CD"/>
<path d="M31.3511 12.2429C31.3511 12.2429 31.3436 12.2254 31.3287 12.1955C31.3362 12.213 31.3412 12.2329 31.3486 12.2504V12.2429H31.3511Z" fill="url(#paint1_linear_65_4)"/>
<path d="M37.0729 21.9822C36.9851 22.009 36.8973 22.0358 36.8071 22.0602C36.8949 22.0334 36.9827 22.009 37.0729 21.9822Z" fill="url(#paint2_linear_65_4)"/>
<path d="M36.3756 22.187C36.2854 22.2113 36.1952 22.2382 36.1025 22.2625C36.1927 22.2382 36.283 22.2138 36.3756 22.187Z" fill="url(#paint3_linear_65_4)"/>
<path d="M31.319 23.2378C31.2556 23.2475 31.1946 23.2573 31.1312 23.2646C31.1922 23.2549 31.2556 23.2475 31.319 23.2378Z" fill="url(#paint4_linear_65_4)"/>
<path d="M32.0016 23.133C31.9285 23.1452 31.8553 23.1573 31.7797 23.1671C31.8529 23.1549 31.926 23.1452 32.0016 23.133Z" fill="url(#paint5_linear_65_4)"/>
<path d="M37.7605 21.7652C37.6849 21.7895 37.6118 21.8139 37.5362 21.8383C37.6118 21.8139 37.6849 21.792 37.7605 21.7652Z" fill="url(#paint6_linear_65_4)"/>
<path d="M29.251 23.4938C29.2382 23.4938 29.2228 23.4964 29.21 23.499C29.2228 23.499 29.2382 23.4964 29.251 23.4938Z" fill="url(#paint7_linear_65_4)"/>
<path d="M32.6769 23.0184C32.5989 23.033 32.5233 23.0452 32.4453 23.0574C32.5233 23.0452 32.5989 23.0306 32.6769 23.0184Z" fill="url(#paint8_linear_65_4)"/>
<path d="M28.085 23.6011C28.0625 23.6011 28.0426 23.6036 28.0201 23.6061C28.0426 23.6061 28.0625 23.6036 28.085 23.6011Z" fill="url(#paint9_linear_65_4)"/>
<path d="M34.9372 22.5551C34.8641 22.5722 34.7934 22.5893 34.7227 22.6063C34.7934 22.5893 34.8665 22.5722 34.9372 22.5551Z" fill="url(#paint10_linear_65_4)"/>
<path d="M38.4431 9.19416V5.36632C38.4431 2.41375 36.0513 0.0195101 33.0963 0.0195101H18.9259C18.9089 0.0121957 18.9016 0.00731766 18.8942 0.00244141V0.0195101H10.0975C7.14491 0.0195101 4.75555 2.41131 4.75555 5.36632V9.34777C3.42921 9.34777 2.35156 10.4254 2.35156 11.7493V19.2709C2.35156 20.6022 3.42921 21.6798 4.75555 21.6798V32.0004C4.75555 34.0094 6.8816 35.1919 8.55171 34.3239C8.81016 34.1874 9.03202 33.9899 9.23439 33.7753L12.0992 30.7009H33.1012C36.0513 30.7009 38.4431 28.3091 38.4431 25.3638V21.5311C38.4602 21.5311 38.4748 21.5311 38.4919 21.5262C38.509 21.5213 38.5236 21.5213 38.5407 21.5213C38.6504 21.514 38.7601 21.5018 38.8674 21.4848C38.9332 21.4726 38.999 21.4555 39.0624 21.4384C39.099 21.4287 39.1356 21.4238 39.1697 21.4141C39.2331 21.3946 39.2989 21.3702 39.3623 21.3458C39.4257 21.3214 39.4915 21.2922 39.5525 21.258C39.6134 21.2263 39.6695 21.1922 39.7256 21.158C39.8426 21.0849 39.9523 21.0045 40.0523 20.9118C40.5399 20.4729 40.8471 19.8342 40.8471 19.1247V11.603C40.8471 10.2791 39.7695 9.19904 38.4431 9.19904V9.19416ZM12.0992 6.9389H23.5291C25.8575 6.9389 27.9592 7.88002 29.4855 9.40385C29.5586 9.47943 29.6342 9.55746 29.7025 9.63304C29.7195 9.65742 29.739 9.68179 29.7585 9.7013C29.7951 9.74274 29.8268 9.77689 29.8634 9.81834C29.8682 9.83053 29.8756 9.83784 29.8829 9.84759C29.9121 9.87685 29.9341 9.90367 29.9585 9.93536C29.9585 9.94024 29.9633 9.94023 29.9658 9.94267V9.94755C30.0267 10.0158 30.0828 10.089 30.1389 10.1621C30.1925 10.2304 30.2486 10.3035 30.2998 10.3767C30.3169 10.3962 30.3315 10.4206 30.3437 10.4401C30.4315 10.5571 30.5168 10.6814 30.5972 10.8033C30.6948 10.9521 30.7825 11.1008 30.8679 11.2519C31.0337 11.5421 31.1824 11.8444 31.3067 12.1565C31.314 12.1687 31.3238 12.1857 31.3262 12.1979C31.3336 12.2101 31.3384 12.2223 31.3433 12.2296C31.3433 12.2369 31.3482 12.2418 31.3482 12.2418L31.3433 12.2467C31.7261 13.2146 31.9455 14.263 31.9455 15.3626C31.9455 15.5357 31.9407 15.7088 31.9285 15.8795C31.9236 15.9795 31.9163 16.0819 31.9041 16.1818C31.8797 16.4403 31.8431 16.6938 31.7944 16.945C31.7944 16.9498 31.7944 16.9523 31.7895 16.9572V16.9767C31.7895 16.9767 31.7846 16.984 31.7846 16.9889C31.7529 17.162 31.7115 17.3351 31.6676 17.5057C31.6432 17.5862 31.6237 17.6667 31.5993 17.7471C31.5871 17.7886 31.5749 17.8227 31.5627 17.8642C31.5432 17.9373 31.5189 18.0104 31.4896 18.0811C31.4896 18.0933 31.4847 18.1055 31.4774 18.1177C31.4579 18.186 31.4335 18.2518 31.4043 18.3152C31.3872 18.3664 31.3677 18.42 31.3433 18.4761C31.3311 18.5127 31.3141 18.5517 31.2945 18.5931C31.2629 18.6736 31.2312 18.7541 31.1897 18.8345C31.1897 18.8345 31.1881 18.837 31.1848 18.8418C31.1653 18.8906 31.1434 18.9345 31.1214 18.9832C31.0922 19.0393 31.0654 19.1003 31.0361 19.1564C31.0312 19.1685 31.0239 19.1807 31.019 19.1881C31.0142 19.1954 31.0117 19.2076 31.0069 19.2173C30.9825 19.2612 30.9581 19.3051 30.9337 19.3465C30.8898 19.4319 30.8459 19.5123 30.7972 19.5928C30.7606 19.6586 30.724 19.7171 30.685 19.783C30.6606 19.8195 30.6411 19.8561 30.6167 19.8927C30.5729 19.9609 30.529 20.0292 30.4802 20.0975C30.4193 20.1901 30.3559 20.2803 30.29 20.3681C30.2705 20.3925 30.2486 20.4193 30.2291 20.4437C30.2096 20.4729 30.1876 20.4973 30.1681 20.5241C30.1242 20.5802 30.0755 20.6412 30.0267 20.6973C30.0023 20.7289 29.978 20.7582 29.9511 20.7899C29.9219 20.8265 29.8902 20.863 29.8536 20.8996C29.8049 20.9606 29.7537 21.0166 29.6951 21.0776C29.6659 21.1093 29.6391 21.1385 29.6098 21.1654C29.5415 21.2385 29.4733 21.3117 29.3952 21.3824C29.3831 21.3946 29.366 21.4116 29.3514 21.4262C29.2977 21.4799 29.2416 21.5311 29.1856 21.5847C29.1246 21.6384 29.0637 21.6896 29.0027 21.7432C28.9856 21.7554 28.9661 21.7725 28.9466 21.792C28.8613 21.8651 28.7735 21.9334 28.6833 22.0016C28.6784 22.0065 28.6711 22.009 28.6662 22.0138C28.6224 22.0455 28.5809 22.0797 28.537 22.1114C28.4639 22.1674 28.3907 22.2162 28.32 22.2723C28.2347 22.3332 28.1518 22.3893 28.0616 22.4405C28.0177 22.4722 27.9689 22.5015 27.9202 22.5283C27.9153 22.5283 27.9129 22.5332 27.908 22.5356C27.8763 22.5527 27.847 22.5722 27.8153 22.5917C27.7544 22.6331 27.691 22.6672 27.6252 22.7014C27.6081 22.7087 27.5935 22.7184 27.5764 22.7258C27.5276 22.755 27.4789 22.7818 27.4277 22.8062C27.3302 22.8574 27.2351 22.9062 27.1327 22.9549C27.0571 22.9915 26.9791 23.0232 26.9035 23.0598C26.8986 23.0647 26.8913 23.0671 26.884 23.0671C26.7718 23.1159 26.6572 23.1646 26.5402 23.2085C26.5085 23.2207 26.4719 23.2329 26.4354 23.25C26.4037 23.2622 26.3695 23.2743 26.3378 23.2817C26.2525 23.3182 26.1672 23.345 26.0843 23.3694C26.0794 23.3694 26.077 23.3694 26.077 23.3743C26.0038 23.3987 25.9282 23.4182 25.8502 23.4377C25.821 23.445 25.7966 23.4548 25.7698 23.4621C25.7454 23.4694 25.7259 23.4791 25.7039 23.4816C25.6869 23.4865 25.6674 23.4889 25.6478 23.4938C25.6162 23.5011 25.5796 23.5108 25.5479 23.5181C25.5406 23.523 25.5308 23.523 25.5235 23.5255C25.4601 23.5425 25.3943 23.5572 25.326 23.5694C25.3138 23.5742 25.3016 23.5767 25.2846 23.5767C25.2724 23.5816 25.2602 23.584 25.2431 23.584C25.1383 23.6132 25.0286 23.6327 24.9164 23.6474C24.8993 23.6523 24.8798 23.6547 24.8603 23.6547H24.8481C24.7384 23.6742 24.6311 23.6913 24.5166 23.7034C24.4995 23.7083 24.4849 23.7083 24.4678 23.7083C24.38 23.7205 24.2898 23.7278 24.1972 23.7376C24.1679 23.7376 24.1411 23.7449 24.1094 23.7449C23.9119 23.7571 23.7144 23.7766 23.512 23.7766H15.454C15.3248 23.7766 15.1907 23.7693 15.0615 23.7473H12.0797V6.92915L12.0992 6.9389Z" fill="url(#paint11_linear_65_4)"/>
<path d="M40.8471 11.6007V19.1223C40.8471 19.8318 40.5399 20.4706 40.0523 20.9094C39.9523 21.0021 39.8426 21.0825 39.7256 21.1557C39.6695 21.1922 39.6134 21.2239 39.5525 21.2556C39.533 21.2629 39.511 21.2751 39.4915 21.2849C39.4501 21.3044 39.4062 21.3263 39.3623 21.3458C39.2965 21.3702 39.2331 21.3946 39.1697 21.4141C38.9673 21.4751 38.7576 21.5116 38.5406 21.5238L38.4236 21.5067C37.9848 21.8286 37.5069 22.109 37.0119 22.3577C36.8144 22.4552 36.617 22.5478 36.4097 22.6356C33.7034 23.7937 30.4583 24.04 27.9811 24.0083C27.8519 24.0083 27.7276 24.0034 27.6008 24.0034C27.4764 23.9985 27.3545 23.9961 27.2375 23.9912C27.1205 23.9863 27.0034 23.9839 26.8864 23.979C25.899 23.9351 25.1041 23.8547 24.6238 23.7986H24.6165C24.4385 23.7791 24.3069 23.7571 24.2167 23.745C24.3093 23.7376 24.3971 23.7279 24.4873 23.7157C24.5044 23.7157 24.519 23.7157 24.5361 23.7108C24.6531 23.6986 24.7652 23.6816 24.8798 23.6621C24.8993 23.6621 24.9213 23.6572 24.9359 23.6547C25.0456 23.6352 25.1529 23.6133 25.2626 23.5914C25.2797 23.5914 25.2919 23.5865 25.3041 23.584C25.3211 23.584 25.3333 23.5792 25.3455 23.5767C25.4138 23.5645 25.4796 23.5475 25.543 23.5328C25.5503 23.528 25.5601 23.528 25.5674 23.5255C25.5991 23.5182 25.6356 23.5085 25.6673 23.5011C25.6917 23.4963 25.7161 23.489 25.7405 23.4816L25.7892 23.4694C25.8185 23.4621 25.8405 23.4524 25.8697 23.4451C25.9453 23.4256 26.0233 23.4036 26.0965 23.3817C26.0965 23.3768 26.1013 23.3768 26.1038 23.3768C26.1574 23.3573 26.2135 23.3402 26.2647 23.3256C26.2964 23.3134 26.3256 23.3012 26.3573 23.289C26.389 23.2817 26.4207 23.2695 26.4549 23.2573C26.4914 23.2403 26.528 23.2281 26.5597 23.2159C26.6767 23.172 26.7889 23.1232 26.9035 23.0745C26.9108 23.0745 26.9205 23.0696 26.923 23.0672C26.9986 23.0306 27.0766 22.9989 27.1522 22.9623C27.2521 22.9136 27.3497 22.8648 27.4472 22.8136C27.4984 22.7892 27.5471 22.76 27.5959 22.7331C27.7081 22.6722 27.8178 22.6088 27.9275 22.5429C27.9324 22.5381 27.9348 22.5356 27.9397 22.5356C28.0494 22.4723 28.1542 22.4015 28.2542 22.3308C28.359 22.2626 28.459 22.1943 28.5565 22.1163C28.6004 22.0846 28.6419 22.0505 28.6857 22.0188C28.7491 21.97 28.8101 21.9212 28.871 21.87C28.971 21.7896 29.0685 21.7091 29.1612 21.6189C29.2465 21.5458 29.3294 21.4653 29.4123 21.3897C29.4879 21.3166 29.5586 21.2434 29.6269 21.1727C29.6561 21.1435 29.6829 21.1167 29.7122 21.085C29.7683 21.024 29.8219 20.9679 29.8707 20.907C29.9024 20.8704 29.9365 20.8338 29.9682 20.7973C29.9975 20.7656 30.0218 20.7363 30.0438 20.7046C30.0925 20.6485 30.1413 20.5876 30.1852 20.5315C30.2047 20.5022 30.2266 20.4803 30.2461 20.451C30.312 20.3657 30.3754 20.2779 30.4363 20.1877C30.5046 20.0902 30.5704 19.9951 30.6338 19.8976C30.6582 19.861 30.6777 19.8244 30.7021 19.7879C30.7386 19.722 30.7777 19.6635 30.8142 19.5977C30.863 19.5172 30.9069 19.4368 30.9508 19.3515C30.98 19.3027 31.0044 19.2515 31.0312 19.1978C31.0312 19.1978 31.0328 19.1962 31.0361 19.193C31.0361 19.193 31.0483 19.1735 31.0532 19.1613C31.0824 19.1052 31.1092 19.0443 31.1385 18.9882C31.1629 18.9394 31.1824 18.8955 31.2019 18.8468C31.2019 18.8468 31.2035 18.8443 31.2068 18.8395C31.2482 18.759 31.2799 18.6785 31.3116 18.5981C31.3311 18.5566 31.3482 18.5176 31.3604 18.481C31.3847 18.425 31.4043 18.3713 31.4213 18.3201C31.4506 18.2567 31.4725 18.1909 31.4945 18.1226C31.5018 18.1105 31.5067 18.0983 31.5067 18.0861C31.5359 18.0129 31.5579 17.9398 31.5798 17.8691C31.592 17.8276 31.6042 17.7935 31.6164 17.752C31.6408 17.6716 31.6603 17.5911 31.6846 17.5107C31.7285 17.3424 31.77 17.1669 31.8017 16.9938C31.8017 16.9889 31.8017 16.9865 31.8065 16.9816C31.8065 16.9694 31.8114 16.9621 31.8114 16.9499C31.8602 16.6988 31.8968 16.4452 31.9211 16.1868C31.9333 16.0868 31.9406 15.9844 31.9455 15.8844C31.9577 15.7162 31.9626 15.5407 31.9626 15.3675C31.9626 14.2704 31.7456 13.222 31.3604 12.2516L31.3652 12.2468C31.3652 12.2468 31.3604 12.2419 31.3604 12.2346C31.3555 12.2272 31.353 12.2151 31.3433 12.2029C31.3384 12.1907 31.3311 12.1736 31.3238 12.1614C31.1994 11.8518 31.0483 11.547 30.8849 11.2569C30.7996 11.1081 30.7118 10.9594 30.6143 10.8083C30.5338 10.6864 30.4485 10.562 30.3607 10.445C30.3485 10.4255 30.3315 10.4011 30.3168 10.3816C30.2632 10.3085 30.2071 10.2353 30.1559 10.167C30.0999 10.0939 30.0389 10.0256 29.9828 9.95248V9.9476C29.9828 9.9476 29.9755 9.94273 29.9755 9.94029C29.9267 9.85252 29.8755 9.7623 29.817 9.67453C29.817 9.67453 29.8154 9.6729 29.8122 9.66965C29.7756 9.59651 29.7317 9.52337 29.6829 9.45267C29.6659 9.42341 29.6512 9.39902 29.6342 9.37707C29.583 9.29174 29.5293 9.20641 29.4733 9.12351C29.4318 9.06256 29.3977 9.00649 29.3562 8.94553C29.2758 8.82363 29.1904 8.70416 29.1027 8.58226C29.0222 8.46523 28.9369 8.3482 28.8491 8.23117C28.7808 8.14339 28.715 8.05318 28.6467 7.96784C28.6345 7.95078 28.6223 7.93615 28.6102 7.91908C28.5907 7.88982 28.5687 7.86788 28.5443 7.8435C28.4566 7.73134 28.3663 7.61675 28.2737 7.50459C28.2444 7.46802 28.2176 7.43146 28.181 7.39489C28.1494 7.35344 28.1128 7.31443 28.0762 7.27298C27.9884 7.16815 27.8982 7.0633 27.8056 6.96334C27.6934 6.83412 27.5788 6.70489 27.4618 6.58055C27.4325 6.55617 27.4106 6.52691 27.3862 6.50009C27.2448 6.35136 27.101 6.20265 26.9547 6.05148C26.845 5.93445 26.7279 5.81741 26.6109 5.7077C26.5792 5.676 26.5451 5.64432 26.5134 5.61018C26.4012 5.50047 26.2866 5.39319 26.1745 5.29079C26.1574 5.27128 26.1428 5.25909 26.1257 5.24202C26.0769 5.19814 26.0282 5.14937 25.977 5.10549C25.9233 5.05673 25.8673 5.00795 25.8161 4.95919C25.7039 4.84948 25.5869 4.74952 25.4699 4.64956C25.3845 4.57398 25.3016 4.49596 25.2114 4.42282C24.9969 4.23264 24.7799 4.05221 24.5653 3.8791C24.5531 3.86691 24.5361 3.85473 24.5214 3.84254C24.2386 3.60848 23.9655 3.39148 23.69 3.1818C23.6388 3.13792 23.5803 3.09647 23.5315 3.0599C23.5242 3.05258 23.512 3.04284 23.4998 3.03552C23.3072 2.8868 23.1171 2.74538 22.9269 2.60885C22.8976 2.58934 22.8659 2.56496 22.8391 2.54546C22.7465 2.47719 22.6538 2.40892 22.5612 2.34309C22.5441 2.3309 22.5246 2.31871 22.5051 2.30164C22.4807 2.28214 22.4539 2.26019 22.4246 2.24556C22.3759 2.20898 22.332 2.1773 22.2832 2.1456C22.2467 2.12122 22.2101 2.09684 22.1735 2.07002C21.9443 1.9091 21.7225 1.7555 21.5079 1.61409C21.503 1.61409 21.503 1.60921 21.5006 1.60921C21.4445 1.56776 21.3884 1.52876 21.3324 1.49218C21.1617 1.38003 21.0008 1.2752 20.8472 1.17767C20.8277 1.16548 20.8057 1.15328 20.7911 1.14109C20.5765 1.00456 20.3766 0.875343 20.1938 0.765628C20.0718 0.690046 19.9646 0.619333 19.8597 0.560818C19.8402 0.553504 19.8183 0.536431 19.7988 0.524241C19.7695 0.504736 19.7427 0.487678 19.7134 0.47305C19.7086 0.468173 19.7061 0.468168 19.7012 0.468168C19.6939 0.460854 19.6842 0.455976 19.6817 0.4511C19.6622 0.438909 19.6452 0.431596 19.6305 0.421844C19.611 0.409653 19.5891 0.397471 19.5696 0.385281C19.5208 0.353585 19.4721 0.329195 19.4282 0.299937C19.3965 0.28287 19.3623 0.263373 19.3355 0.246306C19.138 0.134152 19.0039 0.0561336 18.9406 0.0195618H33.1109C36.0635 0.0195618 38.4578 2.41136 38.4578 5.36637V9.19421C39.7841 9.19421 40.8617 10.2768 40.8617 11.5982L40.8471 11.6007Z" fill="url(#paint12_linear_65_4)"/>
<path opacity="0.52" d="M29.9682 9.9379V9.94521C29.9682 9.94521 29.9609 9.94034 29.9609 9.9379L29.8268 9.70872C29.8268 9.70872 29.8098 9.68433 29.8024 9.67214C29.8024 9.67214 29.8008 9.67051 29.7976 9.66726C29.761 9.59412 29.7171 9.52098 29.6683 9.45028C29.6513 9.42102 29.6367 9.39664 29.6196 9.3747C29.5684 9.28936 29.5147 9.20402 29.4587 9.12112C29.4172 9.06017 29.3831 9.0041 29.3416 8.94314C29.2563 8.82124 29.1734 8.70177 29.0881 8.57986C29.0076 8.46283 28.9223 8.3458 28.8345 8.22877C28.7662 8.141 28.7004 8.05079 28.6321 7.96545C28.62 7.94839 28.6078 7.93375 28.5956 7.91669C28.5761 7.88743 28.5541 7.86549 28.5297 7.84111C28.442 7.72895 28.3518 7.61437 28.2591 7.50222C28.2299 7.46565 28.203 7.42907 28.1665 7.3925C28.1348 7.35105 28.0982 7.31204 28.0616 7.27059C27.9958 7.19013 27.9251 7.10968 27.8568 7.02922C27.8373 7.00484 27.8154 6.98045 27.7934 6.96095C27.6813 6.83173 27.5667 6.7025 27.4496 6.57816C27.4204 6.55378 27.3984 6.52452 27.3741 6.4977C27.2814 6.39773 27.1839 6.30021 27.0961 6.20025C27.0474 6.14905 26.9962 6.10029 26.9425 6.05153C26.8328 5.9345 26.7158 5.81746 26.5987 5.70775C26.4573 5.56633 26.311 5.4298 26.1623 5.29326C26.1453 5.27376 26.1306 5.26158 26.1136 5.24451C26.0648 5.20062 26.016 5.15186 25.9648 5.10798C25.9112 5.05921 25.8551 5.01044 25.8039 4.96168C25.6918 4.85196 25.5747 4.75201 25.4577 4.65205C25.3724 4.57647 25.2895 4.49843 25.1993 4.42529C24.9847 4.23512 24.7677 4.0547 24.5532 3.88159C24.541 3.8694 24.5239 3.85722 24.5093 3.84503C24.2264 3.61097 23.9534 3.39397 23.6779 3.18429C23.6267 3.14041 23.5682 3.09896 23.5194 3.06239C23.5121 3.05507 23.4999 3.04531 23.4877 3.03799C23.2951 2.88927 23.1049 2.74786 22.9147 2.61132C22.8855 2.59182 22.8538 2.56745 22.827 2.54794C22.7343 2.47968 22.6417 2.41384 22.549 2.34558C22.532 2.33338 22.5124 2.3212 22.4929 2.30413C22.4686 2.28463 22.4417 2.26267 22.4125 2.24804C22.3637 2.21147 22.3198 2.17978 22.2711 2.14809C22.2345 2.12371 22.1979 2.09933 22.1614 2.07251C21.9322 1.91159 21.7103 1.75799 21.4958 1.61658C21.4348 1.57513 21.3787 1.53612 21.3178 1.49467C21.1471 1.38252 20.9862 1.27767 20.8326 1.18014C20.8131 1.16795 20.7911 1.15577 20.7765 1.14358C20.5619 1.00705 20.362 0.877816 20.1792 0.7681C20.0573 0.692519 19.95 0.621821 19.8451 0.563306C19.8256 0.555992 19.8037 0.538919 19.7842 0.526728C19.7549 0.507223 19.7281 0.490166 19.6989 0.475537C19.6867 0.468223 19.6745 0.463342 19.6672 0.456028C19.6477 0.443837 19.6306 0.436524 19.616 0.426772C19.5965 0.414581 19.5745 0.402385 19.555 0.390194C19.5233 0.370689 19.4867 0.348746 19.4502 0.329241C19.438 0.321926 19.4258 0.31218 19.4136 0.304866C19.3819 0.287799 19.3478 0.268286 19.3209 0.251219C19.1235 0.139065 18.9894 0.061047 18.926 0.0244751H25.5113C25.5113 0.0244751 29.9609 5.62972 29.9707 9.94277L29.9682 9.9379Z" fill="url(#paint13_linear_65_4)"/>
<path d="M24.4873 23.7157L24.6165 23.7961C24.4361 23.7742 24.3045 23.7571 24.2191 23.7449C24.3093 23.7352 24.3995 23.7279 24.4898 23.7157H24.4873Z" fill="url(#paint14_linear_65_4)"/>
<path d="M40.8496 11.6007C43.7168 11.6007 43.7168 19.1198 40.8496 19.1198C40.8496 19.8293 40.5424 20.4681 40.0547 20.907C39.6524 21.2703 39.1234 21.4921 38.5407 21.519L38.4261 21.5019C34.0716 24.6666 26.606 24.0302 24.619 23.7937C24.619 23.7937 34.5689 23.6986 35.5442 13.99C35.8343 11.1277 35.12 8.24579 33.7351 5.72477C32.8111 4.04246 31.2921 1.85791 29.7049 0.0195618H33.1012C36.0538 0.0195618 38.4431 2.41136 38.4431 5.36149V9.19422C39.7743 9.19422 40.852 10.2719 40.852 11.5982L40.8496 11.6007Z" fill="url(#paint15_linear_65_4)"/>
<path d="M29.9611 9.9378C29.9416 9.91342 29.9196 9.88903 29.8977 9.86465C29.8928 9.85977 29.8904 9.85247 29.8855 9.84759C29.8782 9.84028 29.8684 9.83053 29.866 9.81834C29.8294 9.77689 29.7977 9.74274 29.7612 9.7013C29.7417 9.68179 29.7197 9.65742 29.7051 9.63304C29.7051 9.63304 29.7002 9.62816 29.6978 9.62816C29.6319 9.55257 29.5612 9.47456 29.4881 9.40141C27.9618 7.87515 25.8602 6.93647 23.5318 6.93647H12.1018V30.6984L9.23703 33.7729C9.03466 33.9875 8.81279 34.185 8.55435 34.3215C6.88423 35.1895 4.75819 34.007 4.75819 31.998V21.6774C3.43185 21.6774 2.3542 20.5997 2.3542 19.2685C-0.781233 19.2685 -0.781233 11.7469 2.3542 11.7469C2.3542 10.423 3.43185 9.34534 4.75819 9.34534V5.36388C4.75819 2.41131 7.14756 0.0170687 10.1001 0.0170687H18.8969V0C18.8969 0 18.9139 0.00731616 18.9286 0.0170687C18.992 0.0536406 19.1261 0.129221 19.3236 0.243813C19.3528 0.260879 19.3845 0.280377 19.4162 0.297444C19.4601 0.326702 19.5088 0.348654 19.5576 0.382788C19.5771 0.394978 19.5991 0.40716 19.6186 0.41935C19.6356 0.426665 19.6503 0.436416 19.6698 0.448607C19.6746 0.453483 19.682 0.455923 19.6893 0.465675C19.6941 0.465675 19.6966 0.46568 19.7015 0.470556C19.7307 0.487623 19.7575 0.502257 19.7868 0.521762C19.8063 0.533953 19.8282 0.551011 19.8477 0.558325C19.9526 0.619279 20.0623 0.687553 20.1818 0.763135C20.3622 0.87285 20.5646 1.00207 20.7791 1.1386C20.7962 1.15079 20.8157 1.16299 20.8352 1.17518C20.9888 1.2727 21.1497 1.37754 21.3204 1.48969C21.3765 1.52626 21.4325 1.56527 21.4886 1.60672C21.4935 1.60672 21.4935 1.6116 21.4959 1.6116C21.7105 1.75301 21.9323 1.90661 22.1615 2.06753C22.1981 2.09678 22.2347 2.11873 22.2712 2.14311C22.32 2.1748 22.3639 2.20894 22.4127 2.24308C22.4419 2.26258 22.4687 2.28452 22.4931 2.29915C22.5126 2.31622 22.5346 2.3284 22.5492 2.34059C22.6418 2.40886 22.7345 2.4747 22.8271 2.54296C22.8564 2.56247 22.8881 2.58685 22.9149 2.60636C23.1075 2.74777 23.2977 2.89162 23.4879 3.03303C23.5001 3.04034 23.5122 3.05009 23.5196 3.0574C23.5683 3.09398 23.6244 3.13299 23.678 3.17931C23.9535 3.38899 24.2266 3.60599 24.5094 3.84005C24.5265 3.85224 24.5411 3.86442 24.5533 3.87661C24.7679 4.04972 24.9849 4.23259 25.1994 4.42032C25.2872 4.49347 25.3725 4.56905 25.4579 4.64707C25.5749 4.74703 25.6919 4.84944 25.8041 4.95671C25.8577 5.00548 25.9138 5.05423 25.965 5.103C26.0162 5.14688 26.065 5.19564 26.1137 5.23953C26.1308 5.2566 26.1454 5.26879 26.1625 5.2883C26.2746 5.38826 26.3892 5.49797 26.5014 5.60769C26.5331 5.63938 26.5672 5.67107 26.5989 5.7052C26.7159 5.81736 26.8281 5.93196 26.9427 6.04899C27.089 6.19771 27.2328 6.34643 27.3742 6.4976C27.3986 6.52685 27.423 6.55368 27.4498 6.57806C27.5669 6.7024 27.679 6.83162 27.7936 6.96085C27.8862 7.06081 27.974 7.16565 28.0642 7.27049C28.1008 7.31194 28.1374 7.35095 28.1691 7.3924C28.2056 7.42897 28.2325 7.46555 28.2617 7.50212C28.3544 7.61427 28.4421 7.72885 28.5323 7.84101C28.5567 7.86539 28.5762 7.88977 28.5982 7.91659C28.6104 7.93365 28.6226 7.94829 28.6348 7.96535C28.703 8.05069 28.7688 8.13846 28.8371 8.22867C28.9249 8.3457 29.0102 8.46273 29.0907 8.57976C29.176 8.70167 29.2589 8.82114 29.3442 8.94304C29.3857 9.004 29.4198 9.06007 29.4613 9.12102C29.5174 9.20636 29.571 9.28926 29.6222 9.3746C29.6393 9.39898 29.6539 9.42336 29.671 9.45018C29.7197 9.52332 29.7636 9.59645 29.8002 9.66716C29.8002 9.66716 29.8018 9.66879 29.8051 9.67204C29.8611 9.75981 29.9148 9.85003 29.9635 9.9378H29.9611Z" fill="url(#paint16_linear_65_4)"/>
<path opacity="0.49" d="M12.0992 23.7571V30.7009L9.23439 33.7754C9.03446 33.9899 8.81015 34.185 8.55415 34.3239C6.8816 35.1919 4.75555 34.007 4.75555 32.0004V23.7571H12.0992Z" fill="url(#paint17_linear_65_4)"/>
<path opacity="0.5" d="M29.9682 9.93559C29.6074 9.31631 29.1173 8.74822 28.6443 8.21184C28.1396 7.63888 27.6179 7.08299 27.0815 6.54173C26.5573 6.01509 26.0258 5.47138 25.4455 5.0057C24.5141 4.25719 23.434 3.70618 22.2759 3.40629C21.5835 3.22586 20.8691 3.1381 20.1548 3.1381H10.3681C9.46114 3.1381 8.72483 3.87441 8.72483 4.78139V23.7622H4.75556V21.6825C3.42922 21.6825 2.35157 20.6048 2.35157 19.2736C-0.783857 19.2736 -0.783857 11.7544 2.35157 11.7544C2.35157 10.4281 3.42922 9.35044 4.75556 9.35044V5.36899C4.75556 2.41642 7.14736 0.0270479 10.0975 0.0270479H18.8918V0.00997925C18.8918 0.044113 19.2307 0.200162 19.26 0.217229C19.5477 0.383021 19.8305 0.551241 20.1133 0.724348C21.0398 1.29487 21.9468 1.90197 22.8269 2.5432C23.9729 3.37947 25.0749 4.2767 26.116 5.2422C27.2083 6.25646 28.2274 7.36093 29.0929 8.58C29.405 9.01886 29.6976 9.47235 29.9707 9.93803L29.9682 9.93559Z" fill="url(#paint18_linear_65_4)"/>
<path opacity="0.4" d="M38.4407 24.7348V25.3638C38.4407 28.3115 36.0489 30.7033 33.1012 30.7033H12.0992V27.268H30.1072C31.8821 27.268 33.4572 26.4 34.4275 25.0615C35.7076 25.0396 37.0485 24.942 38.4407 24.7372V24.7348Z" fill="url(#paint19_linear_65_4)"/>
<path d="M34.4275 25.0591C33.4572 26.3976 31.8821 27.2656 30.1072 27.2656H12.0992V23.7572H15.081C15.2102 23.7742 15.3419 23.784 15.4735 23.784H23.5291C23.729 23.784 23.9314 23.7669 24.1289 23.7547C24.1581 23.7547 24.1898 23.745 24.2191 23.745C24.3044 23.7572 24.4385 23.7742 24.6165 23.7962C25.2968 24.001 29.2782 25.1469 34.43 25.0591H34.4275Z" fill="url(#paint20_linear_65_4)"/>
<path opacity="0.4" d="M38.5382 21.5214C38.5041 21.5214 38.4748 21.5312 38.4407 21.5312V24.7349C31.4555 25.7735 25.4625 24.0547 24.6165 23.7986C26.606 24.0327 34.0691 24.6715 38.4236 21.5068L38.5382 21.5239V21.5214Z" fill="#102770"/>
<path d="M35.5393 13.9925C34.564 23.7035 24.614 23.7962 24.614 23.7962L24.4848 23.7157C28.6857 23.2452 31.9503 19.6855 31.9503 15.3603C31.9503 14.2607 31.7333 13.2123 31.3481 12.2468L31.353 12.2419C31.353 12.2419 31.3432 12.2248 31.3311 12.1956C31.0653 11.5446 30.7191 10.9375 30.3046 10.3767C30.1973 10.2304 30.0876 10.089 29.9706 9.95006C29.9706 5.63701 25.5088 0.0220032 25.5088 0.0220032H29.6999C31.2872 1.86035 32.8061 4.04735 33.7302 5.72722C35.115 8.24581 35.8294 11.1301 35.5393 13.9925Z" fill="url(#paint21_linear_65_4)"/>
<path d="M26.6328 17.0109C26.1427 17.9349 25.3503 18.7102 24.4165 19.2539C23.4803 19.8001 22.3929 20.1048 21.3006 20.1438C20.2083 20.1853 19.1014 19.9561 18.131 19.4807C17.1606 19.0028 16.3146 18.286 15.7587 17.3985C16.634 17.9666 17.5215 18.4079 18.4455 18.6883C19.3647 18.9711 20.3156 19.0955 21.2616 19.0613C22.2076 19.0296 23.1438 18.8394 24.0459 18.4908C24.948 18.1446 25.8014 17.6399 26.6328 17.0109Z" fill="#EE3368"/>
<path d="M20.0133 13.0614C20.0133 13.8733 19.355 14.5316 18.5431 14.5316C17.7312 14.5316 17.0729 13.8733 17.0729 13.0614C17.0729 12.2495 17.7337 11.5912 18.5431 11.5912C19.3526 11.5912 20.0133 12.2495 20.0133 13.0614Z" fill="#EE3368"/>
<path d="M25.3186 13.0074C25.3186 13.8192 24.6579 14.4775 23.8484 14.4775C23.039 14.4775 22.3782 13.8192 22.3782 13.0074C22.3782 12.1955 23.0365 11.5372 23.8484 11.5372C24.6603 11.5372 25.3186 12.1955 25.3186 13.0074Z" fill="#EE3368"/>
<defs>
<linearGradient id="paint0_linear_65_4" x1="33.3837" y1="25.5499" x2="33.387" y2="25.5499" gradientUnits="userSpaceOnUse">
<stop stop-color="#FF00FF"/>
<stop offset="1" stop-color="#2E3192"/>
</linearGradient>
<linearGradient id="paint1_linear_65_4" x1="1.67674" y1="12.2229" x2="41.0705" y2="12.2229" gradientUnits="userSpaceOnUse">
<stop stop-color="#17C3FE"/>
<stop offset="1" stop-color="#A497FF"/>
</linearGradient>
<linearGradient id="paint2_linear_65_4" x1="-21.6687" y1="22.0236" x2="40.8495" y2="22.0236" gradientUnits="userSpaceOnUse">
<stop stop-color="#FF0066"/>
<stop offset="1" stop-color="#1297E0"/>
</linearGradient>
<linearGradient id="paint3_linear_65_4" x1="-21.6686" y1="22.2235" x2="40.8495" y2="22.2235" gradientUnits="userSpaceOnUse">
<stop stop-color="#FF0066"/>
<stop offset="1" stop-color="#1297E0"/>
</linearGradient>
<linearGradient id="paint4_linear_65_4" x1="-21.6702" y1="23.25" x2="40.8498" y2="23.25" gradientUnits="userSpaceOnUse">
<stop stop-color="#FF0066"/>
<stop offset="1" stop-color="#1297E0"/>
</linearGradient>
<linearGradient id="paint5_linear_65_4" x1="-21.6691" y1="23.15" x2="40.8496" y2="23.15" gradientUnits="userSpaceOnUse">
<stop stop-color="#FF0066"/>
<stop offset="1" stop-color="#1297E0"/>
</linearGradient>
<linearGradient id="paint6_linear_65_4" x1="-21.6677" y1="21.8017" x2="40.8495" y2="21.8017" gradientUnits="userSpaceOnUse">
<stop stop-color="#FF0066"/>
<stop offset="1" stop-color="#1297E0"/>
</linearGradient>
<linearGradient id="paint7_linear_65_4" x1="-24.3639" y1="23.4964" x2="41.4661" y2="23.4964" gradientUnits="userSpaceOnUse">
<stop stop-color="#FF0066"/>
<stop offset="1" stop-color="#1297E0"/>
</linearGradient>
<linearGradient id="paint8_linear_65_4" x1="-21.6678" y1="23.0403" x2="40.8494" y2="23.0403" gradientUnits="userSpaceOnUse">
<stop stop-color="#FF0066"/>
<stop offset="1" stop-color="#1297E0"/>
</linearGradient>
<linearGradient id="paint9_linear_65_4" x1="-22.8197" y1="23.6036" x2="41.1467" y2="23.6036" gradientUnits="userSpaceOnUse">
<stop stop-color="#FF0066"/>
<stop offset="1" stop-color="#1297E0"/>
</linearGradient>
<linearGradient id="paint10_linear_65_4" x1="-21.6691" y1="22.582" x2="40.8497" y2="22.582" gradientUnits="userSpaceOnUse">
<stop stop-color="#FF0066"/>
<stop offset="1" stop-color="#1297E0"/>
</linearGradient>
<linearGradient id="paint11_linear_65_4" x1="2.35156" y1="17.3083" x2="40.8471" y2="17.3083" gradientUnits="userSpaceOnUse">
<stop stop-color="#FF0066"/>
<stop offset="1" stop-color="#1297E0"/>
</linearGradient>
<linearGradient id="paint12_linear_65_4" x1="18.3164" y1="12.0151" x2="40.8471" y2="12.0151" gradientUnits="userSpaceOnUse">
<stop stop-color="#1297E0"/>
<stop offset="1" stop-color="#27CBC0"/>
</linearGradient>
<linearGradient id="paint13_linear_65_4" x1="18.926" y1="4.98362" x2="29.9682" y2="4.98362" gradientUnits="userSpaceOnUse">
<stop stop-color="#2E3192"/>
<stop offset="1" stop-color="#005B50"/>
</linearGradient>
<linearGradient id="paint14_linear_65_4" x1="24.2069" y1="23.7571" x2="24.6141" y2="23.7571" gradientUnits="userSpaceOnUse">
<stop stop-color="#1297E0"/>
<stop offset="1" stop-color="#27CBC0"/>
</linearGradient>
<linearGradient id="paint15_linear_65_4" x1="24.6141" y1="12.0176" x2="42.9975" y2="12.0176" gradientUnits="userSpaceOnUse">
<stop offset="0.52" stop-color="#20B9CB"/>
<stop offset="0.72" stop-color="#1EB5CD"/>
<stop offset="0.89" stop-color="#1AAAD4"/>
<stop offset="1" stop-color="#16A0DB"/>
</linearGradient>
<linearGradient id="paint16_linear_65_4" x1="18.6116" y1="4.11556" x2="7.40356" y2="28.6455" gradientUnits="userSpaceOnUse">
<stop stop-color="#FFFF00"/>
<stop offset="1" stop-color="#FF0066"/>
</linearGradient>
<linearGradient id="paint17_linear_65_4" x1="8.77115" y1="25.0298" x2="6.04776" y2="42.4063" gradientUnits="userSpaceOnUse">
<stop offset="0.27" stop-color="#760000"/>
<stop offset="0.37" stop-color="#770300"/>
<stop offset="0.46" stop-color="#7D0E00"/>
<stop offset="0.55" stop-color="#872000"/>
<stop offset="0.64" stop-color="#953A00"/>
<stop offset="0.73" stop-color="#A75C00"/>
<stop offset="0.81" stop-color="#BD8500"/>
<stop offset="0.89" stop-color="#D7B500"/>
<stop offset="0.97" stop-color="#F4EC00"/>
<stop offset="1" stop-color="#FFFF00"/>
</linearGradient>
<linearGradient id="paint18_linear_65_4" x1="13.172" y1="20.1294" x2="17.5533" y2="1.31194" gradientUnits="userSpaceOnUse">
<stop stop-color="#FF0066"/>
<stop offset="1" stop-color="#FFFF00"/>
</linearGradient>
<linearGradient id="paint19_linear_65_4" x1="12.0992" y1="27.7166" x2="38.4407" y2="27.7166" gradientUnits="userSpaceOnUse">
<stop stop-color="#FF00FF"/>
<stop offset="1" stop-color="#2E3192"/>
</linearGradient>
<linearGradient id="paint20_linear_65_4" x1="12.0992" y1="25.5053" x2="34.4275" y2="25.5053" gradientUnits="userSpaceOnUse">
<stop stop-color="#FF0066"/>
<stop offset="1" stop-color="#1297E0"/>
</linearGradient>
<linearGradient id="paint21_linear_65_4" x1="24.4872" y1="11.9103" x2="35.6051" y2="11.9103" gradientUnits="userSpaceOnUse">
<stop stop-color="#1297E0"/>
<stop offset="1" stop-color="#27CBC0"/>
</linearGradient>
</defs>
</svg>
